# AST/ASF file generated using VICON BodyLanguage
# -----------------------------------------------
:version 1.10
:name VICON
:units
  mass 1.0
  length 0.45
  angle deg
:documentation
   .ast/.asf automatically generated from VICON data using
   VICON BodyBuilder and BodyLanguage model FoxedUp or BRILLIANT.MOD
:root
   order TX TY TZ RX RY RZ
   axis XYZ
   position 0 0 0  
   orientation 0 0 0 
:bonedata
  begin
     id 1 
     name lhipjoint
     direction 0.645893 -0.654526 0.392961 
     length 2.38111 
     axis 0 0 0  XYZ
  end
  begin
     id 2 
     name lfemur
     direction 0.34202 -0.939693 0  
     length 6.6822  
     axis 0 0 20  XYZ
    dof rx ry rz
    limits (-160.0 20.0)
           (-70.0 70.0)
           (-60.0 70.0)
  end
  begin
     id 3 
     name ltibia
     direction 0.34202 -0.939693 0   
     length 6.93904   
     axis 0 0 20   XYZ
    dof rx
    limits (-10.0 170.0)
  end
  begin
     id 4 
     name lfoot
     direction 0.0694967 -0.190941 0.979138   
     length 2.13616   
     axis -90 7.62852e-016 20   XYZ
    dof rx rz
    limits (-45.0 90.0)
           (-70.0 20.0)
  end
  begin
     id 5 
     name ltoes
     direction 1.535e-011 -4.2202e-011 1   
     length 1.07536   
     axis -90 7.62852e-016 20   XYZ
    dof rx
    limits (-90.0 20.0)
  end
  begin
     id 6 
     name rhipjoint
     direction -0.700219 -0.612087 0.367481   
     length 2.54621  
     axis 0 0 0  XYZ 
  end
  begin
     id 7 
     name rfemur
     direction -0.34202 -0.939693 0   
     length 6.55353   
     axis 0 0 -20   XYZ
    dof rx ry rz
    limits (-160.0 20.0)
           (-70.0 70.0)
           (-70.0 60.0)
  end
  begin
     id 8 
     name rtibia
     direction -0.34202 -0.939693 0   
     length 6.8736   
     axis 0 0 -20   XYZ
    dof rx
    limits (-10.0 170.0)
 end
 begin
     id 9 
     name rfoot
     direction -0.0679995 -0.186827 0.980037   
     length 2.1218  
     axis -90 -7.62852e-016 -20   XYZ
    dof rx rz
    limits (-45.0 90.0)
           (-20.0 70.0)
  end
  begin
     id 10 
     name rtoes
     direction -1.53589e-011 -4.21772e-011 1   
     length 1.06864   
     axis -90 -7.62852e-016 -20   XYZ
    dof rx
    limits (-90.0 20.0)
  end
  begin
     id 11 
     name lowerback
     direction -0.0416607 0.996347 -0.0745409   
     length 2.12205   
     axis 0 0 0   XYZ
    dof rx ry rz
    limits (-20.0 45.0)
           (-30.0 30.0)
           (-30.0 30.0)
  end
  begin
     id 12 
     name upperback
     direction -0.000153993 0.999276 -0.0380568   
     length 2.12759   
     axis 0 0 0   XYZ
    dof rx ry rz
    limits (-20.0 45.0)
           (-30.0 30.0)
           (-30.0 30.0)
  end
  begin
     id 13 
     name thorax
     direction 0.0187671 0.999821 -0.00241421   
     length 2.13704   
     axis 0 0 0   XYZ
    dof rx ry rz
    limits (-20.0 45.0)
           (-30.0 30.0)
           (-30.0 30.0)
  end
  begin
     id 14 
     name lowerneck
     direction 0.0268157 0.964865 0.261374   
     length 1.65253   
     axis 0 0 0   XYZ
    dof rx ry rz
    limits (-20.0 45.0)
           (-30.0 30.0)
           (-30.0 30.0)
  end
  begin
     id 15 
     name upperneck
     direction 0.00263774 0.939908 -0.341418   
     length 1.72375   
     axis 0 0 0   XYZ
    dof rx ry rz
    limits (-20.0 45.0)
           (-30.0 30.0)
           (-30.0 30.0)
  end
  begin
     id 16
     name head
     direction -0.00526001 0.989001 -0.147818  
     length 1.74878  
     axis 0 0 0   XYZ
    dof rx ry rz
    limits (-20.0 45.0)
           (-30.0 30.0)
           (-30.0 30.0)
  end
  begin
     id 17 
     name lclavicle
     direction 0.881214 0.461162 -0.103884  
     length 3.25108  
     axis 0 0 0   XYZ
    dof ry rz
    limits (-20.0 10.0)
           (0.0 20.0)
  end
  begin
     id 18 
     name lhumerus
     direction 1 -4.4899e-011 3.38092e-027   
     length 4.87408   
     axis 180 -30 -90   XYZ
    dof rx ry rz
    limits (-60.0 90.0)
           (-90.0 90.0)
           (-90.0 90.0)
  end
  begin
     id 19
     name lradius
     direction 1 -4.48931e-011 9.96288e-027   
     length 2.76729   
     axis 180 -30 -90   XYZ
    dof rx
    limits (-10.0 170.0)
  end
  begin
     id 20
     name lwrist
     direction 1 -4.4896e-011 1.50617e-026   
     length 1.38364   
     axis -9.31234e-015 90 90   XYZ
    dof ry
    limits (-180.0 0.0)
 end
  begin
     id 21 
     name lhand
     direction 1 -4.49038e-011 3.01286e-026   
     length 0.98922   
     axis -1.92217e-014 90 90   XYZ
    dof rx rz
    limits (-90.0 90.0)
           (-45.0 45.0)
  end
  begin
     id 22 
     name lfingers
     direction 1 -4.49051e-011 6.02588e-026   
     length 0.797535   
     axis -3.84436e-014 90 90   XYZ
    dof rx
    limits (0.0 90.0)
  end
  begin
     id 23
     name lthumb
     direction 0.707107 -6.34901e-011 0.707107   
     length 1.14511   
     axis -90 45 2.19363e-014   XYZ
    dof rx rz
    limits (-45.0 45.0)
           (-45.0 45.0)
  end
  begin
     id 24 
     name rclavicle
     direction -0.893894 0.441652 -0.0767889   
     length 3.29361  
     axis 0 0 0   XYZ 
    dof ry rz
    limits (-10.0 20.0)
           (-20.0 0.0)
  end
  begin
     id 25 
     name rhumerus
     direction -1 -4.48945e-011 8.0491e-028  
     length 4.71404   
     axis 180 30 90   XYZ
    dof rx ry rz
    limits (-90.0 60.0)
           (-90.0 90.0)
           (-90.0 90.0)
  end
  begin
     id 26 
     name rradius
     direction -1 -4.48986e-011 9.27795e-027   
     length 2.83468   
     axis 180 30 90   XYZ
    dof rx
    limits (-10.0 170.0)
  end
  begin
     id 27 
     name rwrist
     direction -1 -4.49029e-011 1.5064e-026   
     length 1.41734   
     axis -9.31234e-015 -90 -90   XYZ
    dof ry
    limits (-180.0 0.0)
  end
  begin
     id 28
     name rhand
     direction -1 -4.48857e-011 3.01165e-026   
     length 0.868195   
     axis -1.92217e-014 -90 -90   XYZ
    dof rx rz
    limits (-90.0 90.0)
           (-45.0 45.0)
  end
  begin
     id 29
     name rfingers
     direction -1 -4.49048e-011 6.02585e-026   
     length 0.699961   
     axis -3.84436e-014 -90 -90   XYZ
    dof rx
    limits (0.0 90.0)
  end
  begin
     id 30
     name rthumb
     direction -0.707107 -6.34854e-011 0.707107   
     length 1.00501   
     axis -90 -45 -2.19363e-014   XYZ
    dof rx rz
    limits (-45.0 45.0)
           (-45.0 45.0)
  end
:hierarchy
  begin
    root lhipjoint rhipjoint lowerback
    lhipjoint lfemur
    lfemur ltibia
    ltibia lfoot
    lfoot ltoes
    rhipjoint rfemur
    rfemur rtibia
    rtibia rfoot
    rfoot rtoes
    lowerback upperback
    upperback thorax
    thorax lowerneck lclavicle rclavicle
    lowerneck upperneck
    upperneck head
    lclavicle lhumerus
    lhumerus lradius
    lradius lwrist
    lwrist lhand lthumb
    lhand lfingers
    rclavicle rhumerus
    rhumerus rradius
    rradius rwrist
    rwrist rhand rthumb
    rhand rfingers
  end

#!OML:ASF H:\ManfredObstacles\Project 1\Capture day 2\Session 1\male.ASF
:FULLY-SPECIFIED
:DEGREES
1
root 1.02217 15.9884 34.8448 -174.759 -4.28744 -175.961
lowerback -3.40769 5.72396 1.10209
upperback 0.57921 7.61359 -1.1563
thorax 2.7953 3.82095 -1.34116
lowerneck -32.5935 -2.1994 -0.989803
upperneck 43.8661 -8.5042 2.29806
head 26.7015 -3.70445 -1.63545
rclavicle 2.01766e-014 -7.95139e-015
rhumerus -45.0726 13.1345 -96.641
rradius 82.3317
rwrist 10.6288
rhand -9.8469 -2.02794
rfingers 7.12502
rthumb 16.1311 -31.3766
lclavicle 2.01766e-014 -7.95139e-015
lhumerus -69.0888 -21.4532 86.9988
lradius 90.6505
lwrist -18.1145
lhand -13.53 5.17794
lfingers 7.12502
lthumb 12.5822 34.779
rfemur 3.04254 -4.3059 28.307
rtibia 44.0741
rfoot 23.9321 -19.7676
rtoes -17.1776
lfemur -36.0479 -1.87639 -19.1024
ltibia 30.117
lfoot 22.9908 3.37212
ltoes -11.5156
2
root 1.0136 15.8831 34.5838 -175.419 -4.38718 -175.909
lowerback -2.98751 5.59138 1.22242
upperback 0.712296 7.436 -1.21876
thorax 2.71504 3.73587 -1.51738
lowerneck -32.4473 -2.31282 -1.28211
upperneck 43.8223 -8.72568 2.64332
head 26.6821 -3.80405 -1.44036
rclavicle -5.92378e-014 -1.59028e-015
rhumerus -45.5571 12.3085 -96.6843
rradius 81.8238
rwrist 10.8635
rhand -10.0961 -2.78383
rfingers 7.12502
rthumb 15.8911 -32.1518
lclavicle -5.92378e-014 -1.59028e-015
lhumerus -68.7889 -21.5742 87.1169
lradius 90.6246
lwrist -17.7774
lhand -14.0263 5.65121
lfingers 7.12502
lthumb 12.1038 35.2811
rfemur 2.34442 -5.05728 27.9994
rtibia 47.7839
rfoot 22.5863 -20.9733
rtoes -17.5757
lfemur -35.1768 -1.27825 -19.565
ltibia 32.1605
lfoot 19.4293 4.77646
ltoes -11.8935
3
root 1.00418 15.7744 34.3292 -176.037 -4.64179 -175.994
lowerback -2.67901 5.31067 1.02095
upperback 0.902644 7.06804 -1.11683
thorax 2.68648 3.54904 -1.3476
lowerneck -32.2173 -2.09183 -1.24844
upperneck 43.9931 -8.59214 2.76721
head 26.7965 -3.77303 -1.34292
rclavicle 1.14202e-013 -1.59028e-014
rhumerus -45.8806 11.7212 -96.3281
rradius 80.9998
rwrist 11.5533
rhand -10.2772 -3.07529
rfingers 7.12502
rthumb 15.7167 -32.4571
lclavicle 1.14202e-013 -1.59028e-014
lhumerus -68.4212 -21.1861 87.2972
lradius 90.4998
lwrist -18.0545
lhand -14.2623 5.34608
lfingers 7.12502
lthumb 11.8762 34.9893
rfemur 1.56517 -5.82649 27.5568
rtibia 51.4086
rfoot 21.1605 -22.0862
rtoes -16.2662
lfemur -34.098 -0.948216 -20.1197
ltibia 34.1653
lfoot 15.4812 7.01575
ltoes -10.8768
4
root 0.992367 15.7108 34.0816 -176.669 -4.89363 -176.395
lowerback -2.14123 5.02081 0.695984
upperback 1.18342 6.69097 -1.21386
thorax 2.63578 3.35531 -1.32672
lowerneck -32.1547 -1.92176 -1.01378
upperneck 43.8343 -8.4814 2.91775
head 26.5755 -3.67722 -1.24725
rclavicle 2.04748e-014 -4.21423e-014
rhumerus -46.0441 10.7606 -96.122
rradius 79.9731
rwrist 12.085
rhand -10.7171 -3.28252
rfingers 7.12502
rthumb 15.293 -32.6971
lclavicle 2.04748e-014 -4.21423e-014
lhumerus -67.4474 -20.8777 87.438
lradius 89.9614
lwrist -18.7958
lhand -14.8966 5.31182
lfingers 7.12502
lthumb 11.2645 34.9894
rfemur 0.589898 -6.38619 26.7436
rtibia 54.863
rfoot 19.6173 -22.2405
rtoes -17.1879
lfemur -33.3736 -2.02933 -20.5801
ltibia 35.9949
lfoot 14.6138 9.39808
ltoes -8.61607
5
root 0.980964 15.62 33.8377 -177.265 -5.1042 -176.772
lowerback -1.6466 4.765 0.369499
upperback 1.41875 6.3534 -1.31251
thorax 2.56583 3.17949 -1.29841
lowerneck -32.0157 -1.77809 -0.93804
upperneck 43.7839 -8.42451 3.13196
head 26.4812 -3.63309 -1.11073
rclavicle -5.725e-014 -1.90833e-014
rhumerus -46.2496 9.87433 -95.8886
rradius 78.9834
rwrist 12.6402
rhand -11.1521 -3.70003
rfingers 7.12502
rthumb 14.874 -33.1461
lclavicle -5.725e-014 -1.90833e-014
lhumerus -66.5992 -20.6721 87.6052
lradius 89.5661
lwrist -19.0916
lhand -15.3199 5.42629
lfingers 7.12502
lthumb 10.8562 35.1257
rfemur -0.373381 -6.9331 25.9456
rtibia 58.3504
rfoot 18.266 -22.5078
rtoes -17.26
lfemur -32.4735 -2.58813 -21.1794
ltibia 37.703
lfoot 12.8408 11.8822
ltoes -6.97625
6
root 0.969194 15.533 33.602 -177.821 -5.28107 -177.341
lowerback -1.1068 4.5221 -0.125943
upperback 1.66891 6.029 -1.47371
thorax 2.47767 3.00489 -1.23978
lowerneck -31.895 -1.64491 -0.876096
upperneck 43.7107 -8.36754 3.35513
head 26.3719 -3.58758 -0.965609
rclavicle -2.72335e-014 5.56597e-015
rhumerus -46.376 8.95239 -95.6201
rradius 77.8624
rwrist 13.0848
rhand -11.5587 -4.22531
rfingers 7.12502
rthumb 14.4823 -33.6999
lclavicle -2.72335e-014 5.56597e-015
lhumerus -65.5716 -20.5151 87.808
lradius 89.0752
lwrist -19.3753
lhand -15.7096 5.66448
lfingers 7.12502
lthumb 10.4803 35.3832
rfemur -1.50416 -7.37128 24.9307
rtibia 61.8338
rfoot 16.9751 -22.4488
rtoes -17.3687
lfemur -31.5135 -3.23983 -21.9594
ltibia 39.1714
lfoot 11.4083 14.292
ltoes -5.29413
7
root 0.957993 15.4502 33.3753 -178.326 -5.39021 -178.095
lowerback -0.570649 4.31464 -0.808357
upperback 1.95377 5.74393 -1.67506
thorax 2.41716 2.84282 -1.11193
lowerneck -31.8212 -1.56215 -0.910236
upperneck 43.6157 -8.3237 3.5908
head 26.2708 -3.55758 -0.799113
rclavicle -9.93923e-015 -2.46493e-014
rhumerus -46.4071 8.02982 -95.2759
rradius 76.6184
rwrist 13.4351
rhand -12.0175 -4.87721
rfingers 7.12502
rthumb 14.0401 -34.383
lclavicle -9.93923e-015 -2.46493e-014
lhumerus -64.3525 -20.4292 88.0736
lradius 88.5058
lwrist -19.6214
lhand -16.0655 6.10017
lfingers 7.12502
lthumb 10.137 35.836
rfemur -2.83887 -7.6796 23.7152
rtibia 65.3392
rfoot 15.6885 -22.1454
rtoes -17.6194
lfemur -30.5206 -3.8415 -22.9198
ltibia 40.4389
lfoot 10.1974 16.4936
ltoes -3.86398
8
root 0.948585 15.3713 33.1585 -178.782 -5.37507 -178.975
lowerback -0.0392857 4.16993 -1.63378
upperback 2.25437 5.53061 -1.89608
thorax 2.36929 2.70927 -0.919342
lowerneck -31.7928 -1.5113 -0.992673
upperneck 43.5117 -8.27347 3.79813
head 26.1791 -3.53295 -0.63893
rclavicle 1.39149e-015 4.77083e-014
rhumerus -46.3697 7.10101 -94.8333
rradius 75.253
rwrist 13.7629
rhand -12.4464 -5.59683
rfingers 7.12502
rthumb 13.6267 -35.1308
lclavicle 1.39149e-015 4.77083e-014
lhumerus -63.0026 -20.4179 88.3952
lradius 87.8876
lwrist -19.8381
lhand -16.3546 6.66208
lfingers 7.12502
lthumb 9.85804 36.4113
rfemur -4.37955 -7.81414 22.3793
rtibia 68.7938
rfoot 14.4425 -21.6883
rtoes -17.9594
lfemur -29.4822 -4.22672 -23.9995
ltibia 41.5036
lfoot 9.03897 18.416
ltoes -2.83288
9
root 0.941385 15.2974 32.9512 -179.179 -5.25288 -179.867
lowerback 0.458222 4.0772 -2.49118
upperback 2.5548 5.37453 -2.10447
thorax 2.34069 2.59941 -0.690525
lowerneck -31.8069 -1.49172 -1.12816
upperneck 43.4079 -8.21211 3.96788
head 26.104 -3.51495 -0.488435
rclavicle -5.09883e-014 3.81667e-014
rhumerus -46.3096 6.17314 -94.2924
rradius 73.8185
rwrist 14.0828
rhand -12.8343 -6.36073
rfingers 7.12502
rthumb 13.2529 -35.9194
lclavicle -5.09883e-014 3.81667e-014
lhumerus -61.5864 -20.4469 88.7424
lradius 87.2496
lwrist -20.1255
lhand -16.5876 7.26949
lfingers 7.12502
lthumb 9.63325 37.0292
rfemur -6.12197 -7.78576 21.0721
rtibia 72.113
rfoot 13.1592 -21.2387
rtoes -18.4516
lfemur -28.4665 -4.35306 -25.0649
ltibia 42.4328
lfoot 7.92031 19.986
ltoes -2.29167
10
root 0.936685 15.2312 32.7513 -179.534 -5.00191 -180.625
lowerback 0.891471 4.0399 -3.23836
upperback 2.85206 5.28554 -2.26298
thorax 2.35312 2.52228 -0.464781
lowerneck -31.8566 -1.4734 -1.22848
upperneck 43.2958 -8.11381 4.05685
head 26.0157 -3.48313 -0.380652
rclavicle -2.68359e-014 1.59028e-014
rhumerus -46.2482 5.22975 -93.6458
rradius 72.3447
rwrist 14.5035
rhand -13.1964 -6.996
rfingers 7.12502
rthumb 12.9039 -36.5771
lclavicle -2.68359e-014 1.59028e-014
lhumerus -60.1546 -20.504 89.1006
lradius 86.6403
lwrist -20.4266
lhand -16.7472 7.80844
lfingers 7.12502
lthumb 9.47923 37.5752
rfemur -8.02327 -7.56355 19.9832
rtibia 75.1913
rfoot 11.88 -20.9036
rtoes -18.996
lfemur -27.5343 -4.189 -25.95
ltibia 43.3138
lfoot 6.83891 21.2306
ltoes -2.158
11
root 0.933927 15.1744 32.557 -179.824 -4.67897 -181.14
lowerback 1.21548 4.01442 -3.76525
upperback 3.1335 5.21605 -2.34263
thorax 2.42436 2.45898 -0.271294
lowerneck -31.9255 -1.4313 -1.30439
upperneck 43.1911 -7.95145 4.08405
head 25.9271 -3.43107 -0.294386
rclavicle -2.03754e-014 3.10104e-014
rhumerus -46.201 4.30636 -92.912
rradius 70.8594
rwrist 15.0356
rhand -13.4621 -7.39365
rfingers 7.12502
rthumb 12.6477 -36.9907
lclavicle -2.03754e-014 3.10104e-014
lhumerus -58.7526 -20.5202 89.441
lradius 86.0947
lwrist -20.7188
lhand -16.8143 8.14039
lfingers 7.12502
lthumb 9.41454 37.9101
rfemur -10.0697 -7.18741 19.257
rtibia 77.9408
rfoot 10.6425 -20.7598
rtoes -19.5999
lfemur -26.7554 -3.80427 -26.5419
ltibia 44.2217
lfoot 5.77114 22.2327
ltoes -2.30053
12
root 0.93247 15.1277 32.3671 -180.043 -4.33825 -181.375
lowerback 1.42969 3.97044 -4.03367
upperback 3.38893 5.13251 -2.3352
thorax 2.5463 2.39608 -0.123057
lowerneck -31.9949 -1.35131 -1.32427
upperneck 43.1153 -7.73544 4.04334
head 25.8517 -3.36045 -0.243633
rclavicle 4.64162e-014 -1.35174e-014
rhumerus -46.2001 3.38905 -92.0948
rradius 69.4354
rwrist 15.6581
rhand -13.5474 -7.49733
rfingers 7.12502
rthumb 12.5655 -37.0995
lclavicle 4.64162e-014 -1.35174e-014
lhumerus -57.4194 -20.4849 89.7742
lradius 85.628
lwrist -20.9448
lhand -16.8328 8.24333
lfingers 7.12502
lthumb 9.39668 38.0139
rfemur -12.2238 -6.70043 18.9392
rtibia 80.3054
rfoot 9.48713 -20.8118
rtoes -20.1482
lfemur -26.1453 -3.28514 -26.8064
ltibia 45.1875
lfoot 4.73053 23.0321
ltoes -2.68078
13
root 0.931407 15.0911 32.181 -180.196 -4.03187 -181.381
lowerback 1.55081 3.88306 -4.07817
upperback 3.62468 5.00217 -2.26157
thorax 2.71515 2.31713 -0.0235896
lowerneck -32.061 -1.23111 -1.31341
upperneck 43.0839 -7.47407 3.96348
head 25.8132 -3.27744 -0.210108
rclavicle -6.17226e-014 6.04305e-014
rhumerus -46.2304 2.54984 -91.2478
rradius 68.0653
rwrist 16.2425
rhand -13.5825 -7.31418
rfingers 7.12502
rthumb 12.5316 -36.9184
lclavicle -6.17226e-014 6.04305e-014
lhumerus -56.1572 -20.396 90.089
lradius 85.2449
lwrist -21.0682
lhand -16.8197 8.10777
lfingers 7.12502
lthumb 9.4093 37.8777
rfemur -14.4414 -6.15664 18.9498
rtibia 82.2657
rfoot 8.4095 -21.0416
rtoes -20.6058
lfemur -25.6772 -2.73263 -26.8066
ltibia 46.1885
lfoot 3.78236 23.6548
ltoes -3.27486
